<svg width="20" height="20" viewBox="0 0 20 20" fill="none" xmlns="http://www.w3.org/2000/svg">
<path d="M19.779 14.4473L15.5805 11.9493C15.4147 11.8407 15.1385 11.8407 15.028 12.0036C14.6966 12.3294 14.0889 12.9268 13.1497 13.85C9.44837 13.85 5.96799 9.99431 5.58128 6.5731L7.7358 4.67243C7.90154 4.50951 7.95678 4.23799 7.79105 4.07507L4.80786 0.165115C4.64213 0.00220035 4.42116 -0.0521046 4.25542 0.0565053C3.64774 0.32803 2.32188 0.925385 0.388333 1.95718C0.167357 2.01148 0.00162446 2.2287 0.00162446 2.50023C-0.108864 8.47377 5.41555 17.4884 16.9616 19.9864C17.2378 20.0407 17.5693 19.9321 17.735 19.6606C18.2874 18.6288 19.5028 16.0222 19.9448 15.0447C20.0552 14.7731 20 14.5559 19.779 14.4473Z" fill="white"/>
</svg>
