<svg width="34" height="30" viewBox="0 0 34 30" fill="none" xmlns="http://www.w3.org/2000/svg">
<path d="M4.07755 0H11.7421C14.0108 0 15.8197 1.88679 15.8197 4.18239V12.044C15.8197 14.3711 13.9802 16.2264 11.7421 16.2264H9.13616C6.89811 16.2264 5.08927 18.1447 5.2119 20.4717C5.30388 22.6415 7.14337 24.3082 9.25879 24.3082H12.2326C12.8151 24.3082 13.275 24.7799 13.275 25.3774V28.9308C13.275 29.5283 12.8151 30 12.2326 30H10.2092C4.56808 30 0 25.3145 0 19.5283V4.18239C0 1.88679 1.83949 0 4.07755 0ZM22.2579 0H29.9225C32.1605 0 34 1.88679 34 4.18239V12.044C34 14.3711 32.1605 16.2264 29.9225 16.2264H27.3165C25.0784 16.2264 23.2696 18.1447 23.3922 20.4717C23.4842 22.6415 25.3237 24.3082 27.4391 24.3082H30.413C30.9955 24.3082 31.4554 24.7799 31.4554 25.3774V28.9308C31.4554 29.5283 30.9955 30 30.413 30H28.3895C22.7484 30 18.1803 25.3145 18.1803 19.5283V4.18239C18.1497 1.88679 19.9892 0 22.2579 0Z" fill="white"/>
</svg>
