<svg width="20" height="20" viewBox="0 0 20 20" fill="none" xmlns="http://www.w3.org/2000/svg">
<path d="M19.6078 17.8212L14.7899 12.905C15.7423 11.5642 16.3585 9.94413 16.3585 8.15643C16.3585 3.68715 12.7171 0 8.17927 0C3.64146 0 0 3.63129 0 8.15643C0 12.6257 3.64146 16.3129 8.17927 16.3129C9.97199 16.3129 11.6527 15.6983 12.9972 14.7486L17.8151 19.6089C18.0392 19.8324 18.3753 20 18.7115 20C19.0476 20 19.3838 19.8883 19.6078 19.6648C19.8319 19.4413 20 19.1061 20 18.771C19.944 18.3799 19.8319 18.0447 19.6078 17.8212ZM8.17927 13.743C5.04202 13.743 2.52101 11.2291 2.52101 8.15643C2.52101 5.02793 5.04202 2.51397 8.17927 2.51397C11.2605 2.51397 13.8375 5.02793 13.8375 8.15643C13.7815 11.2291 11.2605 13.743 8.17927 13.743Z" fill="#252B51"/>
</svg>
